#!OML:ASF F:\VICON\USERDATA\INSTALL\rory3\rory3.ASF
:FULLY-SPECIFIED
:DEGREES
92
root 1.35094114172919 17.88428874481188 48.7357894941625 -3.5796838066481396 0.36447838605936544 -5.875185982704039
lfemur -18.10560511469601 -2.864125822974417 -16.425667432641987
ltibia 31.62256182457582
lfoot -6.897356132343722 0.08190984558170333
ltoes -10.304494241136549
rfemur -6.491947369708516 3.8599498125590914 29.121089576279044
rtibia 43.7356231501596
rfoot -1.1029797296119987 -10.178761934038999
rtoes 8.200636753423995
lowerback 1.0 0.651823446194071 3.7625697585418747
upperback -0.06940612652860984 1.7869877147247777 1.5967955251923143
thorax -4.960062304562435 0.8708797587414664 -1.014843995158437
lowerneck -15.528531518311405 -3.388664821825855 -1.5517603190108702
upperneck 23.326382592824352 -4.562710104921775 0.31668690194930976
head 10.190347927289308 -2.14393465908572 -0.2597544497751928
lclavicle -1.925264181071891e-15 -2.2945473879425243e-16
lhumerus -29.88751886005016 1.6007228971509386 82.2840853343442
lradius 25.509892857687305
lwrist 6.481253132707087
lhand -27.31399512385478 23.51240420704009
lfingers nan
lthumb -0.5102114623282629 53.695786286139
rclavicle -1.884608126805103e-15 -1.9289566247226822e-16
rhumerus -28.378103362725714 -21.782603316486426 -74.27613202052163
rradius 31.938949027944453
rwrist 3.3910007118108734
rhand -18.30043799715066 1.0
rfingers nan
rthumb 8.327440904530112 -7.99043379059599
93
root 1.3419893368634317 17.881776944012152 49.01085479423836 -3.698056545233883 0.4889682593888238 -4.864204683199984
lfemur -16.36692915500838 -3.1261455456277227 -17.868635673002405
ltibia 28.44193891449929
lfoot -7.272975800175066 -0.3948329745037473
ltoes -9.644354441428186
rfemur -7.557299884979922 3.1886805897069053 27.705197146056914
rtibia 47.04717538461649
rfoot -1.5554466817495136 -9.907064212880535
rtoes 8.844881251424642
lowerback 1.0 0.5996418917231057 3.0006331636594363
upperback -0.04680195931977171 1.5558385846059255 1.4391780519280652
thorax -4.969225744479227 0.7834668054504064 -0.7520691525428962
lowerneck -15.593924170869206 -3.391939712343461 -1.5620292317114772
upperneck 23.1612716271721 -4.568305666496455 0.48519334373718803
head 10.156555722597643 -2.13429809874123 -0.19201099714186298
lclavicle -1.924485092576041e-15 -2.283991407112225e-16
lhumerus -29.34932138016737 1.0581983969296673 82.12443811085696
lradius 25.843180913202676
lwrist 6.004956645831455
lhand -27.324682763342118 23.428634601406735
lfingers nan
lthumb -0.44391186291962154 53.77630350269381
rclavicle -1.8859527332769066e-15 -1.9367475426622679e-16
rhumerus -28.564905054358434 -21.881691686686402 -74.80280052302905
rradius 31.846224782590383
rwrist 3.3615698488276116
rhand -18.257801417765343 1.0
rfingers nan
rthumb 8.415427008972124 -7.864097891201126
94
root 1.3370538154201497 17.877531123107598 49.61876109883466 -3.783142638001547 0.7325944576653545 -3.5995134247976903
lfemur -14.275210243340286 -3.452945766064876 -19.576050153895846
ltibia 26.34210272577062
lfoot -7.992569224350403 -1.3598762250582117
ltoes -8.905760066904275
rfemur -8.852393959896778 2.3694359762051453 25.951606359161616
rtibia 50.350835908173366
rfoot -2.158291032663457 -8.8367035460139
rtoes 9.172504887307877
lowerback 1.0 0.44787941321044955 2.046935120018583
upperback 0.0010824579228195796 1.1836696048909716 1.254703086865622
thorax -4.996817685922257 0.60025208861724 -0.4342886226624303
lowerneck -15.687694574338247 -3.393013125888025 -1.5674344347136333
upperneck 22.962340186860494 -4.5694176959657575 0.6482115853033515
head 10.115641145073234 -2.1220840792606777 -0.12759469667368162
lclavicle -1.924869276829139e-15 -2.275173422967074e-16
lhumerus -28.822825827639104 0.6003318164335991 81.97180351662895
lradius 26.10662836797908
lwrist 5.45177995853348
lhand -27.2182080635273 23.611605389179143
lfingers nan
lthumb -0.3653541972131707 53.88124029632853
rclavicle -1.8885739450414916e-15 -1.9491376994748312e-16
rhumerus -28.834725948577947 -22.076439671743486 -75.29762244370114
rradius 31.744063929480223
rwrist 3.3207350024618396
rhand -18.28967958222153 1.0
rfingers nan
rthumb 8.363994249012329 -7.980759087000987
95
root 1.346538025224333 17.875254772037717 50.61544230424745 -3.8141712432707253 1.0263280723033652 -2.4567293738172666
lfemur -12.056475270334559 -3.8701514571356306 -21.25212840448581
ltibia 25.30123374390307
lfoot -8.79651840819493 -1.4993079930995417
ltoes -7.067446488517924
rfemur -11.863202527786736 1.3507149935424798 23.84117464883964
rtibia 54.1217170835025
rfoot -2.8064497496549734 -7.402404022737382
rtoes 9.101292450858905
lowerback 1.0 0.25241804576271215 1.1640710059627162
upperback 0.04484041056531907 0.7597057894957423 1.092094951114608
thorax -5.065349456343612 0.38529850583281633 -0.10915204826588587
lowerneck -15.769216380793827 -3.378571598255079 -1.5458420750000448
upperneck 22.754734065417026 -4.542695343368419 0.7765918365100838
head 10.07587437869747 -2.1027996412605905 -0.07471514977925421
lclavicle -1.924473149516678e-15 -2.2573557167698887e-16
lhumerus -28.32747610748479 0.28982297779735067 81.85188832241589
lradius 26.305374534743162
lwrist 4.910352746821207
lhand -27.246198200562056 23.565527910269402
lfingers nan
lthumb -0.3208265366401376 53.96785363204025
rclavicle -1.890657721373096e-15 -1.955313385117159e-16
rhumerus -29.203015537383628 -22.308467698159255 -75.76614552217764
rradius 31.652411897099707
rwrist 3.264150717501056
rhand -18.280470015076876 1.0
rfingers nan
rthumb 8.436405567966542 -7.867843900939386
96
root 1.3671817944087812 17.88005148033882 52.17633842218407 -3.6994131024410946 1.339476028229653 -1.3444297016580466
lfemur -9.716878203480924 -4.349552132595155 -22.83527578153146
ltibia 24.8717507739998
lfoot -8.408564073533716 -1.4989568925960133
ltoes -7.065239429472275
rfemur -15.159255314730023 0.5026853522281169 22.023772110179028
rtibia 57.63592254542745
rfoot -3.465241151685732 -5.893807918464372
rtoes 8.466022198122335
lowerback 1.0 -0.07943228907383465 0.21677723809389393
upperback 0.05295557076948659 0.11877988516805615 0.9167733515538525
thorax -5.1847133725799734 0.06836115324255415 0.3693786321191068
lowerneck -15.886165578903997 -3.3533444904723777 -1.5152732591446196
upperneck 22.59091767428689 -4.494713517786491 0.8611585044263649
head 10.061950329886544 -2.078579713722355 -0.036779260464161356
lclavicle -1.9235535280294326e-15 -2.2339081060233038e-16
lhumerus -27.872542918457555 0.08667650387995085 81.77672040667746
lradius 26.42366191991267
lwrist 4.507323689411968
lhand -27.141407067123875 23.81971612633024
lfingers nan
lthumb -0.26771886277988044 54.089172735354566
rclavicle -1.892212058827725e-15 -1.9563790969216157e-16
rhumerus -29.67619852012695 -22.556758736692466 -76.22552125725556
rradius 31.58026360233178
rwrist 3.200305672615185
rhand -18.315241812225057 1.0
rfingers nan
rthumb 8.375465489497374 -7.987099420169316
